<svg xmlns="http://www.w3.org/2000/svg" width="769.723" height="454.278" viewBox="0 0 769.723 454.278"><defs><style>.a{fill:#f7fcff;}.b{fill:#d6e8ff;}.c{fill:#ff809f;}.d{fill:#40327a;}.e{fill:#ff95a9;}.f{fill:#323c7a;}.g{fill:#fff;}.h{fill:#7760db;}.i{fill:#ffc359;}.j{fill:#60a2db;}.k{fill:#b8dcff;}.l{fill:#d6e9ff;}.m{fill:none;}.n{fill:#b8e0ff;}.o{fill:#32377a;}.p{fill:#ddd6ff;}.q{fill:#b8cdff;}.r{fill:#b8d0ff;}.s{fill:#b8e7ff;}.t{fill:#96b2f2;}.u{fill:#96aff2;}.v{fill:#32617a;}.w{fill:#60a6db;}.x{fill:#333854;}.y{fill:#b8d2ff;}.z{fill:#f8f7ff;}.aa{fill:#b8d7ff;}.ab{fill:#b8c4ff;}.ac{fill:#d0d8ff;}.ad{fill:#b8d4ff;}.ae{fill:#b8c1ff;}.af{fill:#b8cbff;}.ag{fill:#b8c9ff;}</style></defs><g transform="translate(-93.632 -99.956)"><path class="a" d="M762.456,527.963H178.084c-75.043-83.447-101.243-178-73.9-197.753,37.383-27.007,141.25,77.843,177.826,59.278C386.5,336.432,187.9,172.4,256.785,152.385c63.381-18.414,111.494,131.881,166.01,89.646,37.805-29.288,3.315-76.916,10.235-113.912C444,69.412,538.67,99.531,621.758,246.421c35.026,61.921,83.043-53.727,122.2-67.315,36.357-12.612,95.988,66.475,94.9,172.73C838.3,406.38,815.428,469.013,762.456,527.963Z" transform="translate(0)"/><g transform="translate(407.299 399.814)"><path class="b" d="M561.619,456.58l36.947,127.308h4.246L572.6,456.58Z" transform="translate(-481.792 -456.58)"/><path class="b" d="M507.873,456.58,470.926,583.888H466.68L496.891,456.58Z" transform="translate(-466.68 -456.58)"/></g><circle class="c" cx="62.221" cy="62.221" r="62.221" transform="translate(405.588 312.787)"/><path class="d" d="M609.4,440.63l-1.607-.5a61.63,61.63,0,0,0-3.182-44.5l1.519-.722A63.318,63.318,0,0,1,609.4,440.63Z" transform="translate(-81.336 -46.95)"/><path class="d" d="M508.085,489.026a63.338,63.338,0,0,1-43.624-50.891l1.664-.247a61.646,61.646,0,0,0,42.458,49.532Z" transform="translate(-59.028 -53.791)"/><path class="d" d="M604.386,461.393l-1.48-.8a61.366,61.366,0,0,0,2.86-6.065l1.559.633A63.136,63.136,0,0,1,604.386,461.393Z" transform="translate(-81.065 -56.44)"/><g transform="translate(292.865 459.349)"><path class="d" d="M376.258,551.942a12.278,12.278,0,1,1,12.279-12.278A12.292,12.292,0,0,1,376.258,551.942Zm0-22.875a10.6,10.6,0,1,0,10.6,10.6A10.608,10.608,0,0,0,376.258,529.068Z" transform="translate(-335.898 -527.386)"/><rect class="e" width="80.72" height="55.494" transform="translate(0 12.278)"/><rect class="f" width="8.408" height="55.494" transform="translate(72.312 12.278)"/><rect class="d" width="72.312" height="1.682" transform="translate(0 39.184)"/><rect class="g" width="11.772" height="7.568" transform="translate(30.27 39.184)"/></g><path class="d" d="M563.5,448.919a30.627,30.627,0,0,1-2.22,11.477H504.407A30.66,30.66,0,1,1,563.5,448.919Z" transform="translate(-65.033 -50.667)"/><circle class="d" cx="8.408" cy="8.408" r="8.408" transform="translate(459.401 389.844)"/><circle class="h" cx="11.469" cy="11.469" r="11.469" transform="matrix(0.879, -0.477, 0.477, 0.879, 521.165, 344.919)"/><path class="i" d="M556.315,372.751l48.664,25.884,12.629-19.022-42.776-34.753Z" transform="translate(-73.649 -38.983)"/><circle class="i" cx="16.816" cy="16.816" r="16.816" transform="matrix(0.955, -0.298, 0.298, 0.955, 469.499, 307.882)"/><path class="i" d="M511.589,371.98l-45.314,31.382-14.761-17.419,38.432-39.5Z" transform="translate(-56.967 -39.235)"/><circle class="i" cx="16.816" cy="16.816" r="16.816" transform="matrix(0.062, -0.998, 0.998, 0.062, 427.217, 334.657)"/><circle class="d" cx="11.477" cy="11.477" r="11.477" transform="translate(437.706 398.252)"/><circle class="d" cx="11.477" cy="11.477" r="11.477" transform="translate(474.942 398.252)"/><path class="i" d="M566.828,352.721l-4.111,83.8H501.4l-4.112-83.8a11.772,11.772,0,0,1,11.758-12.348h46.02A11.772,11.772,0,0,1,566.828,352.721Z" transform="translate(-64.251 -38.269)"/><path class="f" d="M563.5,454.723l-.563,11.477-.028.563a11.477,11.477,0,0,1-11.464,10.915h-37.2a11.477,11.477,0,0,1-11.463-10.915l-.028-.563-.563-11.477Z" transform="translate(-65.032 -56.471)"/><circle class="d" cx="7.096" cy="7.096" r="7.096" transform="translate(480.835 518.948) rotate(-46.343)"/><circle class="d" cx="9.724" cy="9.724" r="9.724" transform="translate(478.527 401.926)"/><path class="f" d="M556.647,577.72l-5.256-107.062H570.84V577.72Z" transform="translate(-72.865 -59.007)"/><path class="e" d="M578.97,606.4H557.629v-8.408h14.2l8.15,4.445a2.111,2.111,0,0,1,1.1,1.852h0A2.111,2.111,0,0,1,578.97,606.4Z" transform="translate(-73.858 -79.276)"/><circle class="d" cx="7.096" cy="7.096" r="7.096" transform="translate(526.877 432.199) rotate(-77.056)"/><path class="f" d="M499.431,437.988a9.724,9.724,0,1,1-12.422,5.9A9.723,9.723,0,0,1,499.431,437.988Z" transform="translate(-62.527 -53.717)"/><path class="f" d="M596.756,487.372,494.132,456.417l6.523-18.322L601.516,474Z" transform="translate(-63.751 -53.824)"/><path class="e" d="M621.7,503.736l7.157-20.1-7.921-2.82-4.762,13.379,1.454,9.168a2.112,2.112,0,0,0,1.376,1.658h0A2.111,2.111,0,0,0,621.7,503.736Z" transform="translate(-83.177 -60.624)"/><rect class="e" width="21.021" height="22.778" transform="translate(459.892 278.757) rotate(3.316)"/><path class="e" d="M548.645,338.991a10.51,10.51,0,1,1-9.885-11.1A10.51,10.51,0,0,1,548.645,338.991Z" transform="translate(-69.085 -36.279)"/><path class="f" d="M503.223,471.162,489.051,453.77l14.027-13.392,16.709,14.995Z" transform="translate(-62.942 -54.187)"/><g transform="translate(303.078 366.179)"><path class="b" d="M364.581,416.578l-.883,8.408L346.974,577.52h-4.246l12.553-160.943Z" transform="translate(-342.728 -416.578)"/><path class="b" d="M835.306,416.578l.883,8.408L852.913,577.52h4.246L844.606,416.578Z" transform="translate(-421.135 -416.578)"/></g><rect class="j" width="427.549" height="8.408" transform="translate(306.571 366.179)"/><circle class="i" cx="11.469" cy="11.469" r="11.469" transform="translate(391.309 343.229)"/><rect class="d" width="40.359" height="5.045" transform="translate(476.466 361.134)"/><path class="k" d="M676.466,348.078,674.372,393l-.589,12.671H593.065l2.682-57.6Z" transform="translate(-79.498 -39.496)"/><ellipse class="g" cx="6.025" cy="5.75" rx="6.025" ry="5.75" transform="translate(546.936 337.478) rotate(-44.334)"/><path class="l" d="M674.372,401.509l-.589,12.671H593.065Z" transform="translate(-79.498 -48)"/><path class="f" d="M566.615,290.248l-3.046.246-1.656-20.567,3.046-.245a10.316,10.316,0,0,1,11.112,9.455h0A10.316,10.316,0,0,1,566.615,290.248Z" transform="translate(-74.54 -27.011)"/><path class="f" d="M0,0H15.283a0,0,0,0,1,0,0V16.013a0,0,0,0,1,0,0H9.089A9.089,9.089,0,0,1,0,6.924V0A0,0,0,0,1,0,0Z" transform="matrix(0.997, -0.08, 0.08, 0.997, 452.073, 269.949)"/><path class="f" d="M0,0H5.683A10.906,10.906,0,0,1,16.589,10.906V16.69a9.861,9.861,0,0,1-9.861,9.861H0a0,0,0,0,1,0,0V0A0,0,0,0,1,0,0Z" transform="translate(479.571 237.073) rotate(-4.604)"/><path class="e" d="M558.735,318.133l-27.044,2.178-2.453-30.454a16.826,16.826,0,0,1,15.422-18.123h0A16.827,16.827,0,0,1,562.7,286.346l3,23.189A7.641,7.641,0,0,1,558.735,318.133Z" transform="translate(-69.33 -27.334)"/><path class="m" d="M570.909,303.535l-1.867-14.416Z" transform="translate(-75.674 -30.111)"/><path class="f" d="M17.574,0h0a0,0,0,0,1,0,0V28.768a0,0,0,0,1,0,0H0a0,0,0,0,1,0,0V17.574A17.574,17.574,0,0,1,17.574,0Z" transform="translate(449.948 243.559) rotate(-4.604)"/><path class="e" d="M529.447,305.711l4.57-.368-.367-4.57a4.586,4.586,0,0,0-4.939-4.2h0a4.584,4.584,0,0,0-4.2,4.938h0A4.584,4.584,0,0,0,529.447,305.711Z" transform="translate(-68.583 -31.294)"/><path class="f" d="M565.534,280.182l-17.351,1.4a12.881,12.881,0,0,1-13.858-11.792,6.114,6.114,0,0,1,12.188-.982.641.641,0,0,0,.689.587l17.351-1.4Z" transform="translate(-70.145 -25.982)"/><path class="f" d="M560.278,274.461l-8.632.7a6.113,6.113,0,1,1-.982-12.187l8.633-.7a6.113,6.113,0,1,1,.981,12.187Z" transform="translate(-71.854 -25.834)"/><path class="f" d="M567.505,320.6a6.12,6.12,0,0,1-5.578,6.885l-12.11.975a12.226,12.226,0,0,1-13.167-11.2L535.5,302.99l4.567-.367h0a5.1,5.1,0,0,0,5.488,4.67l20.014-1.612Z" transform="translate(-70.336 -32.26)"/><g transform="translate(463.915 352.705)"><path class="e" d="M559.186,405.394a6.727,6.727,0,1,0-4.568,8.344A6.727,6.727,0,0,0,559.186,405.394Z" transform="translate(-535.921 -400.553)"/><path class="e" d="M543.9,408.192a5.045,5.045,0,1,1-6.258-3.426A5.045,5.045,0,0,1,543.9,408.192Z" transform="translate(-534.013 -401.191)"/><path class="e" d="M551.509,414.061l-11.762.006-1.417-9.888,11.29-3.3Z" transform="translate(-534.701 -400.605)"/></g><path class="i" d="M463.506,389.542l64.946,12.727-.965,10h-3.41l-5.038,0-57.725.007Z" transform="translate(-58.527 -46.096)"/><path class="e" d="M539.372,414.51l.965-10-4.373-.857,0,10.856Z" transform="translate(-70.409 -48.342)"/><rect class="i" width="9.529" height="9.529" transform="translate(429.007 344.287)"/><rect class="g" width="1.682" height="43.573" transform="translate(422.633 347.763) rotate(-78.919)"/><rect class="h" width="1.682" height="30.883" transform="translate(448.249 408.86) rotate(-73.214)"/><path class="n" d="M202.915,273.292c-2.473,11.458-6.616,22.49-9.925,33.735-3.405,11.575-6.84,23.349-6.8,35.415a63.2,63.2,0,0,0,17.056,42.693c4.222,4.471,9.151,8.38,12.4,13.6s4.45,12.387.819,17.35c-5.239,7.159-16.447,5.607-24.108,10.08-9.647,5.631-10.987,19.983-5.487,29.7s30.544,37.536,66.279,30.649c15.994-3.083,37.674-18.3,37.055-34.58-.643-16.949-16.828-30.677-16.277-47.629.362-11.106,7.827-20.492,14.291-29.53s12.485-20.05,9.509-30.756c-4.381-15.76-24.676-20.626-34.5-33.7-6.33-8.42-7.723-19.494-8.116-30.02s-.124-21.312-3.635-31.243C242.957,224.971,212.723,227.844,202.915,273.292Z" transform="translate(-14.328 -21.352)"/><rect class="o" width="1.682" height="182.669" transform="translate(225.304 312.506)"/><path class="d" d="M251.9,410.312l-1.66-.274c2.719-16.524,21.512-26.8,22.311-27.231l.8,1.482C273.164,384.39,254.487,394.61,251.9,410.312Z" transform="translate(-24.929 -45.024)"/><path class="o" d="M247.35,497.285c-1.836-11.161-15.152-18.451-15.286-18.524l.8-1.481c.578.311,14.176,7.747,16.149,19.731Z" transform="translate(-22.035 -60.061)"/><path class="i" d="M0,0H60.539a0,0,0,0,1,0,0V13.505A24.747,24.747,0,0,1,35.792,38.253H24.747A24.747,24.747,0,0,1,0,13.505V0A0,0,0,0,1,0,0Z" transform="translate(195.732 488.869)"/><path class="d" d="M225.649,601.2a21.611,21.611,0,0,1-11.589-19.175v-6.415h1.682v6.415a19.931,19.931,0,0,0,10.69,17.686Z" transform="translate(-19.169 -75.714)"/><rect class="g" width="60.539" height="1.682" transform="translate(195.732 494.334)"/><rect class="k" width="767.16" height="1.682" transform="translate(96.195 527.121)"/><g transform="translate(474.853 539.738)"><path class="p" d="M547.023,623.994h0Z" transform="translate(-547.022 -623.153)"/><rect class="q" width="179.215" height="1.682"/></g><g transform="translate(609.961 552.552)"><path class="p" d="M707.708,639.234h0Z" transform="translate(-707.708 -638.393)"/><rect class="r" width="112.366" height="1.682"/></g><g transform="translate(414.513 552.552)"><path class="p" d="M475.26,639.234h0Z" transform="translate(-475.26 -638.393)"/><rect class="r" width="148.267" height="1.682"/></g><g transform="translate(704.577 539.935)"><path class="q" d="M820.236,624.228h0Z" transform="translate(-820.236 -623.387)"/><rect class="s" width="53.675" height="1.682" transform="translate(0)"/></g><g transform="translate(337.981 539.738)"><path class="q" d="M384.239,623.994h0Z" transform="translate(-384.239 -623.153)"/><rect class="q" width="108.675" height="1.682" transform="translate(0)"/></g><rect class="d" width="38.563" height="1.682" transform="translate(217.708 488.028)"/><path class="a" d="M712,141.225c.586-5.294,2.13-8.9,5.8-10.889,10.868-5.894,38.141,3.669,49.482,18.422,15.814,20.574,1.391,52.211-13.972,54.231C735.433,205.339,708.977,168.554,712,141.225Z" transform="translate(-98.392 -4.555)"/><path class="g" d="M567.089,311.4a4.624,4.624,0,1,1-9.213.816Z" transform="translate(-73.897 -33.657)"/><g transform="translate(657.467 434.17)"><circle class="g" cx="16.221" cy="16.221" r="16.221" transform="matrix(0.161, -0.987, 0.987, 0.161, 0, 32.018)"/><path class="d" d="M783.125,533.421a17.062,17.062,0,1,1,17.062-17.062A17.081,17.081,0,0,1,783.125,533.421Zm0-32.442a15.38,15.38,0,1,0,15.38,15.38A15.4,15.4,0,0,0,783.125,500.979Z" transform="translate(-764.503 -497.736)"/></g><g transform="translate(640.082 443.08)"><circle class="g" cx="11.674" cy="11.674" r="11.674" transform="translate(0 9.011) rotate(-22.702)"/><path class="d" d="M759.329,536.35a12.515,12.515,0,1,1,12.516-12.516A12.531,12.531,0,0,1,759.329,536.35Zm0-23.349a10.834,10.834,0,1,0,10.834,10.833A10.846,10.846,0,0,0,759.329,513Z" transform="translate(-744.053 -508.559)"/></g><path class="t" d="M799.289,521.59l-1.1,8.467-.21,1.682-2.993,23.106-3.649,28.109-.362,2.808-1.1,8.475H742.559l-1.1-8.475-.219-1.682-2.649-20.449-4.137-31.892-.21-1.682-1.1-8.467Z" transform="translate(-101.795 -67.115)"/><g transform="translate(632.789 308.583)"><rect class="c" width="17.657" height="57.596" transform="translate(35.314)"/><rect class="g" width="5.886" height="23.333" transform="translate(41.2 5.886)"/><path class="d" d="M790.084,399.067a3.363,3.363,0,1,1-3.363-3.363A3.363,3.363,0,0,1,790.084,399.067Z" transform="translate(-742.577 -355.659)"/><rect class="u" width="17.657" height="57.596" transform="translate(17.657)"/><rect class="g" width="5.886" height="23.333" transform="translate(23.543 5.886)"/><path class="d" d="M769.084,399.067a3.363,3.363,0,1,1-3.363-3.363A3.363,3.363,0,0,1,769.084,399.067Z" transform="translate(-739.234 -355.659)"/><rect class="i" width="17.657" height="57.596"/><rect class="g" width="5.886" height="23.333" transform="translate(5.886 5.886)"/><path class="d" d="M748.084,399.067a3.363,3.363,0,1,1-3.363-3.363A3.363,3.363,0,0,1,748.084,399.067Z" transform="translate(-735.892 -355.659)"/></g><path class="v" d="M398.329,274.15a40.185,40.185,0,1,1,40.185-40.185A40.231,40.231,0,0,1,398.329,274.15Zm0-78.689a38.5,38.5,0,1,0,38.5,38.5A38.548,38.548,0,0,0,398.329,195.461Z" transform="translate(-42.104 -14.935)"/><g transform="translate(321.751 184.556)"><circle class="w" cx="33.633" cy="33.633" r="33.633" transform="translate(0.841 0.841)"/><path class="g" d="M399.411,269.519a34.474,34.474,0,1,1,34.474-34.474A34.513,34.513,0,0,1,399.411,269.519Zm0-67.266A32.792,32.792,0,1,0,432.2,235.046,32.829,32.829,0,0,0,399.411,202.254Z" transform="translate(-364.937 -200.572)"/></g><g transform="translate(322.592 185.397)"><g transform="translate(32.792 0)"><path class="x" d="M405.937,201.572v0Z" transform="translate(-405.096 -201.572)"/><rect class="g" width="1.682" height="7.074"/><g transform="translate(0 60.192)"><path class="x" d="M405.937,273.159v0Z" transform="translate(-405.096 -273.159)"/><rect class="g" width="1.682" height="7.074"/></g></g><g transform="translate(16.088 4.085)"><path class="x" d="M385.937,206.931l3.537,6.126Z" transform="translate(-385.209 -206.51)"/><rect class="g" width="1.682" height="7.074" transform="translate(0 0.841) rotate(-29.999)"/><g transform="translate(30.096 52.128)"><path class="x" d="M421.731,268.927l3.537,6.126Z" transform="translate(-421.003 -268.506)"/><rect class="g" width="1.682" height="7.074" transform="translate(0 0.841) rotate(-29.999)"/></g></g><g transform="translate(4.086 16.088)"><path class="x" d="M371.3,221.572l6.126,3.537Z" transform="translate(-370.876 -220.844)"/><rect class="g" width="1.682" height="7.074" transform="translate(0 1.457) rotate(-60.001)"/><g transform="translate(52.128 30.096)"><path class="x" d="M433.292,257.365l6.126,3.537Z" transform="translate(-432.872 -256.637)"/><rect class="g" width="1.682" height="7.074" transform="matrix(0.5, -0.866, 0.866, 0.5, 0, 1.457)"/></g></g><g transform="translate(0 32.792)"><path class="x" d="M365.937,241.572h0Z" transform="translate(-365.937 -240.731)"/><rect class="g" width="7.074" height="1.682" transform="translate(0)"/><g transform="translate(60.192)"><path class="x" d="M437.524,241.572h0Z" transform="translate(-437.524 -240.731)"/><rect class="g" width="7.074" height="1.682"/></g></g><g transform="translate(4.086 16.088)"><g transform="translate(0 30.096)"><path class="x" d="M371.3,260.9l6.126-3.537Z" transform="translate(-370.876 -256.637)"/><rect class="g" width="7.074" height="1.682" transform="matrix(0.866, -0.5, 0.5, 0.866, 0, 3.536)"/></g><g transform="translate(52.128)"><path class="x" d="M433.292,225.109l6.126-3.537Z" transform="translate(-432.872 -220.844)"/><rect class="g" width="7.074" height="1.682" transform="translate(0 3.536) rotate(-29.995)"/></g></g><g transform="translate(16.089 4.085)"><g transform="translate(0 52.128)"><path class="x" d="M385.937,275.053l3.537-6.126Z" transform="translate(-385.209 -268.506)"/><rect class="g" width="7.074" height="1.682" transform="translate(0 6.127) rotate(-60.005)"/></g><g transform="translate(30.096)"><path class="x" d="M421.731,213.057l3.537-6.126Z" transform="translate(-421.003 -206.51)"/><rect class="g" width="7.074" height="1.682" transform="translate(0 6.127) rotate(-60.005)"/></g></g><path class="g" d="M421.757,238.534h-16.82V217.2h1.682v19.649h15.138Z" transform="translate(-372.145 -204.06)"/></g><path class="c" d="M419.811,411.865H407.619l-1.682-25.894h15.555Z" transform="translate(-49.712 -45.527)"/><g transform="translate(352.38 304.154)"><path class="g" d="M420.055,362.457a7.7,7.7,0,0,1-7.694,7.694V363.8a9.994,9.994,0,1,1,0-19.987v10.946A7.7,7.7,0,0,1,420.055,362.457Z" transform="translate(-401.523 -342.97)"/><path class="o" d="M412.2,370.832h-.841v-6.384a10.835,10.835,0,0,1,.841-21.637h.841V353.8a8.538,8.538,0,0,1-.841,17.034Zm-.841-26.3A9.153,9.153,0,0,0,412.2,362.8h.841v6.3a6.856,6.856,0,0,0-.841-13.661h-.841Z" transform="translate(-401.364 -342.811)"/></g><path class="y" d="M796.016,561.14l-3.649,28.109-.362,2.808-1.1,8.475H743.591l-1.1-8.475-.219-1.682-2.649-20.449Z" transform="translate(-102.827 -73.41)"/><g transform="translate(632.452 462.943)"><path class="g" d="M750.378,586.593l-1.673.151-.084-.916-4.826-52.341-.067-.765,1.682-.151.084.917,4.818,52.341Z" transform="translate(-735.932 -531.806)"/><rect class="g" width="1.681" height="54.105" transform="translate(17.138 0.888) rotate(-3.152)"/><rect class="g" width="1.682" height="54.032" transform="translate(26.478 0.857) rotate(-1.039)"/><rect class="g" width="54.032" height="1.682" transform="matrix(0.019, -1, 1, 0.019, 34.811, 54.849)"/><rect class="g" width="54.107" height="1.681" transform="matrix(0.056, -0.998, 0.998, 0.056, 42.15, 54.818)"/><path class="g" d="M800.011,532.722l-.067.765-4.86,52.341-.084.916-1.673-.151.067-.765,4.86-52.341.084-.917Z" transform="translate(-743.828 -531.806)"/><path class="g" d="M734.457,531.661l.21,1.682h63.524l.21-1.682ZM791.4,585.684H741.453l.219,1.682h49.516l.362-2.809v-.041Z" transform="translate(-734.457 -531.661)"/></g><rect class="g" width="57.659" height="1.682" transform="matrix(0.046, -0.999, 0.999, 0.046, 512.73, 366.14)"/><g transform="translate(306.57 373.746)"><path class="z" d="M346.882,426.578h0Z" transform="translate(-346.882 -425.737)"/><rect class="d" width="112.619" height="1.682" transform="translate(0)"/></g><g transform="translate(473.72 373.746)"><path class="z" d="M545.675,426.578h0Z" transform="translate(-545.675 -425.737)"/><rect class="d" width="186.541" height="1.682"/></g><g transform="translate(685.76 373.746)"><path class="z" d="M797.857,426.578h0Z" transform="translate(-797.857 -425.737)"/><rect class="d" width="48.359" height="1.682" transform="translate(0)"/></g><g transform="translate(669.492 373.746)"><path class="z" d="M778.509,426.578h0Z" transform="translate(-778.509 -425.737)"/><rect class="d" width="7.76" height="1.682"/></g><g transform="translate(631.346 453.635)"><path class="z" d="M733.142,521.59h0Z" transform="translate(-733.142 -520.749)"/><rect class="d" width="24.565" height="1.682"/></g><g transform="translate(659.868 527.123)"><path class="z" d="M767.064,608.99h0Z" transform="translate(-767.063 -608.15)"/><rect class="d" width="47.514" height="1.682" transform="translate(0 0)"/></g><g transform="translate(324.191 527.123)"><path class="z" d="M367.839,608.99h0Z" transform="translate(-367.839 -608.15)"/><rect class="d" width="103.594" height="1.682" transform="translate(0 0)"/></g><g transform="translate(226.75 527.123)"><path class="z" d="M251.951,608.99h0Z" transform="translate(-251.951 -608.15)"/><rect class="d" width="38.78" height="1.682" transform="translate(0 0)"/></g><g transform="translate(635.131 527.123)"><path class="z" d="M737.643,608.99h0Z" transform="translate(-737.643 -608.15)"/><rect class="d" width="13.393" height="1.682" transform="translate(0 0)"/></g><g transform="translate(488.776 153.986)"><g transform="translate(19.041 9.548)"><path class="aa" d="M595.236,209.164a18.068,18.068,0,0,1-3.3-.3,6.985,6.985,0,0,1-5.713-6.867v-1.166h1.682v1.166a5.3,5.3,0,0,0,4.337,5.214,16.363,16.363,0,0,0,5.981,0,5.3,5.3,0,0,0,.639-10.267l-7.768-2.466a6.984,6.984,0,0,1,.842-13.524,18.064,18.064,0,0,1,6.593,0,6.985,6.985,0,0,1,5.712,6.867v1.167h-1.682v-1.167a5.3,5.3,0,0,0-4.336-5.213,16.321,16.321,0,0,0-5.98,0,5.3,5.3,0,0,0-.639,10.266l7.768,2.467a6.984,6.984,0,0,1-.842,13.523A18.151,18.151,0,0,1,595.236,209.164Z" transform="translate(-586.227 -176.378)"/><rect class="aa" width="1.682" height="5.11" transform="translate(8.168)"/><rect class="aa" width="1.682" height="5.11" transform="translate(8.168 31.894)"/></g><path class="aa" d="M591.631,220.315a28.05,28.05,0,1,1,28.051-28.051A28.083,28.083,0,0,1,591.631,220.315Zm0-54.419A26.369,26.369,0,1,0,618,192.264,26.4,26.4,0,0,0,591.631,165.9Z" transform="translate(-563.581 -164.214)"/></g><g transform="translate(782.79 226.14)"><g transform="translate(0 0)"><path class="g" d="M970.2,251.244l-19.486,40.541L937.04,281.15,969.5,251.616a.039.039,0,0,0-.043-.063L926.171,272.69l-10.672-8.3,54.532-13.355A.147.147,0,0,1,970.2,251.244Z" transform="translate(-913.612 -250.188)"/><path class="ab" d="M950.66,292.93l-15.282-11.889,29.047-26.43-38.714,18.907-12.456-9.69,56.219-13.768a.98.98,0,0,1,.994.327,1,1,0,0,1,.13,1.063Zm-12.672-11.99,12.059,9.383,17.392-36.181ZM917.03,264.633l8.886,6.912,37.329-18.23Z" transform="translate(-913.255 -250.029)"/></g><g transform="translate(11.716 0.297)"><path class="g" d="M971.518,251.714,939.06,281.248,930.1,289.4a1.116,1.116,0,0,1-1.867-.822l-.038-15.786v0l43.284-21.137A.039.039,0,0,1,971.518,251.714Z" transform="translate(-927.349 -250.583)"/><path class="ab" d="M929.193,290.335a1.972,1.972,0,0,1-.8-.17,1.932,1.932,0,0,1-1.167-1.786l-.04-16.313.474-.235,43.922-21.45.88,1.174-.541.579L930.5,289.822A1.937,1.937,0,0,1,929.193,290.335Zm-.319-17.223.036,15.264a.261.261,0,0,0,.164.251.264.264,0,0,0,.3-.049l37.273-33.911Z" transform="translate(-927.189 -250.382)"/></g></g><g transform="translate(565.782 268.553)"><path class="ac" d="M916.929,304.176l-.9-1.422c2.225-1.4,3.46-2.274,3.473-2.284l.97,1.373C920.426,301.879,919.2,302.746,916.929,304.176Z" transform="translate(-696.689 -300.47)"/><path class="ac" d="M798.823,330.053l-.005-1.682c2.7-.008,5.479-.124,8.259-.348l.134,1.676C804.388,329.927,801.566,330.046,798.823,330.053Zm-8.395-.329c-2.813-.231-5.618-.59-8.338-1.068l.291-1.656c2.67.468,5.423.821,8.185,1.049Zm25.113-1-.253-1.662c2.673-.406,5.411-.914,8.141-1.509l.358,1.643C821.023,327.8,818.248,328.317,815.541,328.728Zm-41.654-1.922a83.688,83.688,0,0,1-7.983-2.655l.611-1.566a81.793,81.793,0,0,0,7.821,2.6Zm58.034-1.636-.453-1.619c2.608-.73,5.272-1.555,7.92-2.451l.539,1.593C837.252,323.6,834.559,324.432,831.922,325.17Zm-73.68-4.435c-2.512-1.191-5.059-2.33-7.572-3.383l.651-1.55c2.534,1.064,5.106,2.212,7.642,3.414Zm89.552-.926-.617-1.565c2.533-1,5.106-2.084,7.645-3.224l.689,1.534C852.948,317.706,850.351,318.8,847.793,319.81Zm-104.845-5.478c-2.614-.949-5.259-1.832-7.862-2.626l.491-1.608c2.63.8,5.3,1.7,7.943,2.654Zm120.122-1.377-.757-1.5c2.479-1.249,4.943-2.56,7.327-3.9l.823,1.467C868.06,310.371,865.573,311.694,863.071,312.954ZM727.1,309.509c-2.7-.662-5.426-1.245-8.1-1.733l.3-1.655c2.7.494,5.462,1.085,8.2,1.754Zm-57.292-.349-.448-1.621c2.635-.727,5.394-1.353,8.2-1.859l.3,1.655C675.1,307.832,672.394,308.446,669.807,309.16Zm41.006-2.617c-2.755-.325-5.529-.56-8.246-.7l.086-1.679c2.753.139,5.565.376,8.357.706Zm-24.771-.339-.162-1.673c2.747-.267,5.567-.432,8.381-.491l.034,1.682C691.525,305.78,688.748,305.942,686.043,306.2Z" transform="translate(-657.424 -301.038)"/><path class="ac" d="M655.981,314.651l-.816-1.47a38.08,38.08,0,0,1,3.915-1.785l.629,1.559A37.363,37.363,0,0,0,655.981,314.651Z" transform="translate(-655.165 -302.209)"/></g><g transform="translate(579.213 213.789)"><g transform="translate(0 5.613)"><path class="ad" d="M716.4,273.442H671.139V242.015H716.4Zm-43.575-1.682h41.893V243.7H672.821Z" transform="translate(-671.139 -242.015)"/><path class="ad" d="M694.383,262.615,671.5,243.538l1.077-1.292L694.355,260.4l20.7-18.143,1.109,1.265Z" transform="translate(-671.196 -242.052)"/></g><g transform="translate(37.961 0)"><path class="g" d="M728.514,241.952a5.613,5.613,0,1,1-5.613-5.613A5.613,5.613,0,0,1,728.514,241.952Z" transform="translate(-716.446 -235.498)"/><path class="ae" d="M722.741,248.247a6.454,6.454,0,1,1,6.453-6.454A6.461,6.461,0,0,1,722.741,248.247Zm0-11.227a4.772,4.772,0,1,0,4.772,4.772A4.778,4.778,0,0,0,722.741,237.021Z" transform="translate(-716.287 -235.339)"/></g></g><g transform="translate(756.065 319.158)"><g transform="translate(15.668)"><rect class="af" width="1.682" height="4.717"/><rect class="af" width="1.682" height="4.717" transform="translate(0 28.301)"/></g><g transform="translate(7.526 1.791)"><rect class="af" width="1.682" height="4.717" transform="matrix(0.866, -0.5, 0.5, 0.866, 0, 0.841)"/><rect class="af" width="1.682" height="4.717" transform="matrix(0.866, -0.5, 0.5, 0.866, 14.15, 25.35)"/></g><g transform="translate(1.792 7.526)"><rect class="af" width="1.682" height="4.717" transform="matrix(0.5, -0.866, 0.866, 0.5, 0, 1.457)"/><rect class="af" width="1.682" height="4.717" transform="translate(24.509 15.607) rotate(-59.998)"/></g><g transform="translate(0 15.668)"><rect class="af" width="4.717" height="1.682"/><rect class="af" width="4.717" height="1.682" transform="translate(28.301)"/></g><g transform="translate(1.792 7.526)"><rect class="af" width="4.717" height="1.682" transform="matrix(0.866, -0.5, 0.5, 0.866, 0, 16.508)"/><rect class="af" width="4.717" height="1.682" transform="translate(24.509 2.358) rotate(-29.995)"/></g><g transform="translate(7.526 1.791)"><rect class="af" width="4.717" height="1.682" transform="matrix(0.5, -0.866, 0.866, 0.5, 0, 28.594)"/><rect class="af" width="4.717" height="1.682" transform="translate(14.15 4.085) rotate(-60.005)"/></g></g><g transform="translate(413.873 110.871)"><g transform="translate(15.668)"><rect class="ag" width="1.682" height="4.717"/><rect class="ag" width="1.682" height="4.717" transform="translate(0 28.301)"/></g><g transform="translate(7.526 1.792)"><rect class="ag" width="1.682" height="4.717" transform="translate(0 0.841) rotate(-29.999)"/><rect class="ag" width="1.682" height="4.717" transform="translate(14.15 25.35) rotate(-29.999)"/></g><g transform="translate(1.791 7.526)"><rect class="ag" width="1.682" height="4.717" transform="translate(0 1.457) rotate(-60.003)"/><rect class="ag" width="1.682" height="4.716" transform="matrix(0.5, -0.866, 0.866, 0.5, 24.51, 15.607)"/></g><g transform="translate(0 15.668)"><rect class="ag" width="4.717" height="1.682"/><rect class="ag" width="4.716" height="1.682" transform="translate(28.301)"/></g><g transform="translate(1.791 7.527)"><rect class="ag" width="4.717" height="1.682" transform="translate(0 16.508) rotate(-29.995)"/><rect class="ag" width="4.716" height="1.682" transform="translate(24.509 2.358) rotate(-29.995)"/></g><g transform="translate(7.526 1.792)"><rect class="ag" width="4.717" height="1.682" transform="matrix(0.5, -0.866, 0.866, 0.5, 0, 28.594)"/><rect class="ag" width="4.717" height="1.682" transform="translate(14.15 4.085) rotate(-60.005)"/></g></g></g></svg>